# xmcd CD database file
# Copyright (C) 1993-1998 Ti Kan
# 
# Track frame offsets:
#     182
#     26207
#     65107
#     81507
#     112707
#     141420
#     167857
#     194645
#     230557
#     263120
#     288132
# 
# Disc length: 4301 seconds
# 
# Revision: 1
# Processed by: cddbd v1.4b41PL1 Copyright (c) Steve Scherf et al.
# Submitted via: DiscPlay 4.0.4
# 
DISCID=a710cb0b
DTITLE=Various Artist - electrico
DYEAR=1900
DGENRE=
TTITLE0=coyote-who am i
TTITLE1=genetica-retrospace
TTITLE2=the source feat. candy staton-you got the love
TTITLE3=ost-the spy who dubed me
TTITLE4=reality feat. reda-promises
TTITLE5=jimmy somerville-dark sky
TTITLE6=carl cox-sensual sophis_ti_cat
TTITLE7=superstars of rock-strobelight serenade
TTITLE8=earl grey-my soul's on ice
TTITLE9=namaste'-open your eyes
TTITLE10=flytronix-to ya!
EXTD=
EXTT0=
EXTT1=
EXTT2=
EXTT3=
EXTT4=
EXTT5=
EXTT6=
EXTT7=
EXTT8=
EXTT9=
EXTT10=
PLAYORDER=
